<svg id="Layer_1" data-name="Layer 1" xmlns="http://www.w3.org/2000/svg" viewBox="0 0 426.9 259.24"><defs><style>.cls-1{fill:#f47400;}.cls-2{fill:#fff;}</style></defs><path class="cls-1" d="M237.1,30.79A2.51,2.51,0,0,0,233.61,28c-38.21,17.53-61.08,44.42-70.89,80.6-6.44,23.77,4.07,48.83,24.42,60.7,5.39-4.89,5.77-13.54,5.65-17.25a1.24,1.24,0,0,0-1.72-1.11l-9.53,4a1.76,1.76,0,0,1-2.22-2.46l13.22-24.57a5.26,5.26,0,0,0,.63-2.49v-11a5.24,5.24,0,0,1,1.55-3.74l6.75-6.76a1.22,1.22,0,0,0,.37-.88V80.68a1.76,1.76,0,0,1,1.76-1.77h5.66a1.76,1.76,0,0,1,1.57,1l13.9,27.23a1.78,1.78,0,0,0,3,.24l8.79-12a1.78,1.78,0,0,1,1.43-.73h3.32A1.77,1.77,0,0,1,243,96.92l-9.22,28.81a5.3,5.3,0,0,0,0,3.2l11.51,36.58a52.51,52.51,0,0,0,19.19-28.88C275.35,94.17,227.26,75.16,237.1,30.79Z"/><path class="cls-2" d="M27.73,203.28h3.45V231H27.73Z"/><path class="cls-2" d="M57.45,202.82A13.23,13.23,0,0,1,68.22,208l-2.74,1.71a10.23,10.23,0,0,0-8-3.83c-6.07,0-10.68,4.66-10.68,11.27s4.61,11.3,10.68,11.3a10.93,10.93,0,0,0,7.44-3v-5.65H55.37v-3.08h13v10a14.46,14.46,0,0,1-10.9,4.78,14.37,14.37,0,0,1,0-28.73Z"/><path class="cls-2" d="M84.06,208.64V231H80.61V203.28h3.54l16,21.91V203.28h3.45V231h-3.33Z"/><path class="cls-2" d="M116.7,203.28h3.45V231H116.7Z"/><path class="cls-2" d="M140.15,206.36h-8.77v-3.08h21v3.08H143.6V231h-3.45Z"/><path class="cls-2" d="M163.64,203.28h3.45V231h-3.45Z"/><path class="cls-2" d="M192.87,202.82c8.19,0,13.76,6.16,13.76,14.35s-5.57,14.34-13.76,14.34-13.76-6.15-13.76-14.34S184.64,202.82,192.87,202.82Zm0,3.08c-6.24,0-10.19,4.78-10.19,11.27s3.95,11.26,10.19,11.26,10.19-4.82,10.19-11.26S199.06,205.9,192.87,205.9Z"/><path class="cls-2" d="M222.14,208.64V231h-3.45V203.28h3.53l16,21.91V203.28h3.45V231h-3.33Z"/><path class="cls-2" d="M287.25,208.64,281.14,231h-3.75l-7.89-27.73h3.82l6.15,23.12,6.37-23.12h2.86l6.36,23.12,6.12-23.12H305L297.1,231h-3.74Z"/><path class="cls-2" d="M327.33,202.82c8.19,0,13.76,6.16,13.76,14.35s-5.57,14.34-13.76,14.34-13.76-6.15-13.76-14.34S319.1,202.82,327.33,202.82Zm0,3.08c-6.24,0-10.19,4.78-10.19,11.27s3.95,11.26,10.19,11.26,10.19-4.82,10.19-11.26S333.52,205.9,327.33,205.9Z"/><path class="cls-2" d="M353.15,203.28h3.45v24.65h12.89V231H353.15Z"/><path class="cls-2" d="M381,203.28h18.16v3.08H384.45v8.94h14.43v3.07H384.45V231H381Z"/></svg>